<svg width="32" height="36" viewBox="0 0 32 36" fill="none" xmlns="http://www.w3.org/2000/svg">
<path d="M12.0003 20.4894C8.88033 20.4894 2.66699 22.1534 2.66699 25.4671V27.956H21.3337V25.4671C21.3337 22.1534 15.1203 20.4894 12.0003 20.4894ZM5.78699 25.1116C6.90699 24.2867 9.61366 23.3338 12.0003 23.3338C14.387 23.3338 17.0937 24.2867 18.2137 25.1116H5.78699ZM12.0003 18.0005C14.5737 18.0005 16.667 15.7676 16.667 13.0227C16.667 10.2778 14.5737 8.04492 12.0003 8.04492C9.42699 8.04492 7.33366 10.2778 7.33366 13.0227C7.33366 15.7676 9.42699 18.0005 12.0003 18.0005ZM12.0003 10.8894C13.107 10.8894 14.0003 11.8423 14.0003 13.0227C14.0003 14.2031 13.107 15.156 12.0003 15.156C10.8937 15.156 10.0003 14.2031 10.0003 13.0227C10.0003 11.8423 10.8937 10.8894 12.0003 10.8894ZM21.387 20.5747C22.9337 21.7694 24.0003 23.3623 24.0003 25.4671V27.956H29.3337V25.4671C29.3337 22.5943 24.667 20.9587 21.387 20.5747ZM20.0003 18.0005C22.5737 18.0005 24.667 15.7676 24.667 13.0227C24.667 10.2778 22.5737 8.04492 20.0003 8.04492C19.2803 8.04492 18.6137 8.22981 18.0003 8.5427C18.8403 9.80848 19.3337 11.3587 19.3337 13.0227C19.3337 14.6867 18.8403 16.2369 18.0003 17.5027C18.6137 17.8156 19.2803 18.0005 20.0003 18.0005Z" fill="#222831"/>
</svg>
