<svg width="32" height="32" viewBox="0 0 32 32" fill="none" xmlns="http://www.w3.org/2000/svg">
<path d="M16.0003 9.33333C16.0003 7.91885 15.4384 6.56229 14.4382 5.5621C13.438 4.5619 12.0815 4 10.667 4H2.66699V24H12.0003C13.0612 24 14.0786 24.4214 14.8288 25.1716C15.5789 25.9217 16.0003 26.9391 16.0003 28M16.0003 9.33333V28M16.0003 9.33333C16.0003 7.91885 16.5622 6.56229 17.5624 5.5621C18.5626 4.5619 19.9192 4 21.3337 4H29.3337V24H20.0003C18.9395 24 17.922 24.4214 17.1719 25.1716C16.4218 25.9217 16.0003 26.9391 16.0003 28" stroke="#222831" stroke-width="2.5" stroke-linecap="round" stroke-linejoin="round"/>
</svg>
