<svg width="32" height="32" viewBox="0 0 32 32" fill="none" xmlns="http://www.w3.org/2000/svg">
<path d="M28.6 0H3.4C1.5248 0 0 1.59467 0 3.55556V28.4444C0 30.4053 1.5248 32 3.4 32H28.6C30.4752 32 32 30.4053 32 28.4444V3.55556C32 1.59467 30.4752 0 28.6 0ZM28.6 28.4444H3.4C3.3088 28.4444 3.2464 28.416 3.2192 28.416C3.20853 28.416 3.20213 28.4207 3.2 28.4302L3.1808 3.63733C3.192 3.61956 3.264 3.55556 3.4 3.55556H28.6C28.7264 3.55733 28.7952 3.60533 28.8 3.56978L28.8192 28.3627C28.808 28.3804 28.736 28.4444 28.6 28.4444Z" fill="#222831"/>
<path d="M6.39941 7.11182H15.9994V17.7785H6.39941V7.11182ZM17.5994 21.334H6.39941V24.8896H25.5994V21.334H19.1994H17.5994ZM19.1994 14.2229H25.5994V17.7785H19.1994V14.2229ZM19.1994 7.11182H25.5994V10.6674H19.1994V7.11182Z" fill="#222831"/>
</svg>
