<svg width="32" height="32" viewBox="0 0 32 32" fill="none" xmlns="http://www.w3.org/2000/svg">
<path d="M15.9997 16.0002C14.533 16.0002 13.2775 15.4779 12.233 14.4335C11.1886 13.3891 10.6663 12.1335 10.6663 10.6668C10.6663 9.20016 11.1886 7.94461 12.233 6.90016C13.2775 5.85572 14.533 5.3335 15.9997 5.3335C17.4663 5.3335 18.7219 5.85572 19.7663 6.90016C20.8108 7.94461 21.333 9.20016 21.333 10.6668C21.333 12.1335 20.8108 13.3891 19.7663 14.4335C18.7219 15.4779 17.4663 16.0002 15.9997 16.0002ZM5.33301 26.6668V22.9335C5.33301 22.1779 5.52745 21.4835 5.91634 20.8502C6.30523 20.2168 6.8219 19.7335 7.46634 19.4002C8.84412 18.7113 10.2441 18.1946 11.6663 17.8502C13.0886 17.5057 14.533 17.3335 15.9997 17.3335C17.4663 17.3335 18.9108 17.5057 20.333 17.8502C21.7552 18.1946 23.1552 18.7113 24.533 19.4002C25.1775 19.7335 25.6941 20.2168 26.083 20.8502C26.4719 21.4835 26.6663 22.1779 26.6663 22.9335V26.6668H5.33301ZM7.99967 24.0002H23.9997V22.9335C23.9997 22.6891 23.9386 22.4668 23.8163 22.2668C23.6941 22.0668 23.533 21.9113 23.333 21.8002C22.133 21.2002 20.9219 20.7502 19.6997 20.4502C18.4775 20.1502 17.2441 20.0002 15.9997 20.0002C14.7552 20.0002 13.5219 20.1502 12.2997 20.4502C11.0775 20.7502 9.86634 21.2002 8.66634 21.8002C8.46634 21.9113 8.30523 22.0668 8.18301 22.2668C8.06079 22.4668 7.99967 22.6891 7.99967 22.9335V24.0002ZM15.9997 13.3335C16.733 13.3335 17.3608 13.0724 17.883 12.5502C18.4052 12.0279 18.6663 11.4002 18.6663 10.6668C18.6663 9.9335 18.4052 9.30572 17.883 8.7835C17.3608 8.26127 16.733 8.00016 15.9997 8.00016C15.2663 8.00016 14.6386 8.26127 14.1163 8.7835C13.5941 9.30572 13.333 9.9335 13.333 10.6668C13.333 11.4002 13.5941 12.0279 14.1163 12.5502C14.6386 13.0724 15.2663 13.3335 15.9997 13.3335Z" fill="#222831"/>
</svg>
