<svg width="32" height="32" viewBox="0 0 32 32" fill="none" xmlns="http://www.w3.org/2000/svg">
<g clip-path="url(#clip0_343_958)">
<path d="M15.9997 20.0002C18.2088 20.0002 19.9997 18.2093 19.9997 16.0002C19.9997 13.791 18.2088 12.0002 15.9997 12.0002C13.7905 12.0002 11.9997 13.791 11.9997 16.0002C11.9997 18.2093 13.7905 20.0002 15.9997 20.0002Z" stroke="#222831" stroke-width="2.5" stroke-linecap="round" stroke-linejoin="round"/>
<path d="M25.8663 20.0002C25.6889 20.4023 25.6359 20.8484 25.7143 21.2809C25.7928 21.7135 25.999 22.1126 26.3063 22.4268L26.3863 22.5068C26.6343 22.7545 26.831 23.0486 26.9652 23.3723C27.0994 23.696 27.1684 24.0431 27.1684 24.3935C27.1684 24.7439 27.0994 25.0909 26.9652 25.4147C26.831 25.7384 26.6343 26.0325 26.3863 26.2802C26.1387 26.5281 25.8446 26.7248 25.5208 26.859C25.1971 26.9932 24.8501 27.0623 24.4997 27.0623C24.1492 27.0623 23.8022 26.9932 23.4785 26.859C23.1548 26.7248 22.8607 26.5281 22.613 26.2802L22.533 26.2002C22.2188 25.8928 21.8197 25.6866 21.3871 25.6082C20.9546 25.5297 20.5085 25.5827 20.1063 25.7602C19.712 25.9292 19.3757 26.2098 19.1387 26.5675C18.9018 26.9253 18.7747 27.3444 18.773 27.7735V28.0002C18.773 28.7074 18.4921 29.3857 17.992 29.8858C17.4919 30.3859 16.8136 30.6668 16.1063 30.6668C15.3991 30.6668 14.7208 30.3859 14.2207 29.8858C13.7206 29.3857 13.4397 28.7074 13.4397 28.0002V27.8802C13.4294 27.4388 13.2865 27.0108 13.0297 26.6518C12.7729 26.2927 12.414 26.0192 11.9997 25.8668C11.5975 25.6893 11.1514 25.6364 10.7189 25.7148C10.2864 25.7932 9.88725 25.9994 9.57301 26.3068L9.49301 26.3868C9.24535 26.6348 8.95124 26.8315 8.62751 26.9657C8.30379 27.0999 7.95678 27.1689 7.60634 27.1689C7.2559 27.1689 6.90889 27.0999 6.58517 26.9657C6.26144 26.8315 5.96734 26.6348 5.71967 26.3868C5.47174 26.1392 5.27505 25.8451 5.14085 25.5213C5.00665 25.1976 4.93758 24.8506 4.93758 24.5002C4.93758 24.1497 5.00665 23.8027 5.14085 23.479C5.27505 23.1553 5.47174 22.8612 5.71967 22.6135L5.79967 22.5335C6.10706 22.2193 6.31325 21.8201 6.39168 21.3876C6.47011 20.9551 6.41716 20.509 6.23967 20.1068C6.07066 19.7125 5.79001 19.3761 5.43229 19.1392C5.07457 18.9023 4.65539 18.7752 4.22634 18.7735H3.99967C3.29243 18.7735 2.61415 18.4925 2.11406 17.9924C1.61396 17.4923 1.33301 16.8141 1.33301 16.1068C1.33301 15.3996 1.61396 14.7213 2.11406 14.2212C2.61415 13.7211 3.29243 13.4402 3.99967 13.4402H4.11967C4.561 13.4298 4.98901 13.287 5.34807 13.0302C5.70713 12.7734 5.98063 12.4145 6.13301 12.0002C6.31049 11.598 6.36344 11.1519 6.28501 10.7194C6.20659 10.2869 6.00039 9.88773 5.69301 9.5735L5.61301 9.4935C5.36507 9.24583 5.16838 8.95173 5.03418 8.628C4.89998 8.30427 4.83091 7.95727 4.83091 7.60683C4.83091 7.25639 4.89998 6.90938 5.03418 6.58565C5.16838 6.26193 5.36507 5.96782 5.61301 5.72016C5.86067 5.47223 6.15477 5.27553 6.4785 5.14134C6.80223 5.00714 7.14923 4.93806 7.49967 4.93806C7.85012 4.93806 8.19712 5.00714 8.52085 5.14134C8.84458 5.27553 9.13868 5.47223 9.38634 5.72016L9.46634 5.80016C9.78058 6.10754 10.1797 6.31374 10.6122 6.39217C11.0447 6.47059 11.4909 6.41765 11.893 6.24016H11.9997C12.394 6.07115 12.7304 5.7905 12.9673 5.43278C13.2042 5.07506 13.3313 4.65588 13.333 4.22683V4.00016C13.333 3.29292 13.614 2.61464 14.1141 2.11454C14.6142 1.61445 15.2924 1.3335 15.9997 1.3335C16.7069 1.3335 17.3852 1.61445 17.8853 2.11454C18.3854 2.61464 18.6663 3.29292 18.6663 4.00016V4.12016C18.6681 4.54921 18.7952 4.9684 19.0321 5.32612C19.269 5.68384 19.6053 5.96448 19.9997 6.1335C20.4018 6.31098 20.8479 6.36393 21.2805 6.2855C21.713 6.20708 22.1121 6.00088 22.4263 5.6935L22.5063 5.6135C22.754 5.36556 23.0481 5.16887 23.3718 5.03467C23.6956 4.90047 24.0426 4.8314 24.393 4.8314C24.7434 4.8314 25.0905 4.90047 25.4142 5.03467C25.7379 5.16887 26.032 5.36556 26.2797 5.6135C26.5276 5.86116 26.7243 6.15526 26.8585 6.47899C26.9927 6.80272 27.0618 7.14972 27.0618 7.50016C27.0618 7.8506 26.9927 8.19761 26.8585 8.52134C26.7243 8.84506 26.5276 9.13917 26.2797 9.38683L26.1997 9.46683C25.8923 9.78107 25.6861 10.1802 25.6077 10.6127C25.5292 11.0452 25.5822 11.4913 25.7597 11.8935V12.0002C25.9287 12.3945 26.2093 12.7309 26.5671 12.9678C26.9248 13.2047 27.344 13.3318 27.773 13.3335H27.9997C28.7069 13.3335 29.3852 13.6144 29.8853 14.1145C30.3854 14.6146 30.6663 15.2929 30.6663 16.0002C30.6663 16.7074 30.3854 17.3857 29.8853 17.8858C29.3852 18.3859 28.7069 18.6668 27.9997 18.6668H27.8797C27.4506 18.6685 27.0314 18.7957 26.6737 19.0326C26.316 19.2695 26.0354 19.6058 25.8663 20.0002Z" stroke="#222831" stroke-width="2.5" stroke-linecap="round" stroke-linejoin="round"/>
</g>
<defs>
<clipPath id="clip0_343_958">
<rect width="32" height="32" fill="white"/>
</clipPath>
</defs>
</svg>
